<svg width="664" height="668" viewBox="0 0 664 668" fill="none" xmlns="http://www.w3.org/2000/svg">
<g opacity="0.07" filter="url(#filter0_d_1_486)">
<path d="M602.387 143.651C542.929 56.9063 443.11 0 330 0C147.746 0 0 147.746 0 330C0 356.515 3.1273 382.3 9.03288 407.006L177.082 238.957C193.191 222.848 219.309 222.848 235.418 238.957L371.25 374.789L602.387 143.651Z" fill="#8794BA"/>
<path d="M641.609 221.102L400.418 462.293C384.309 478.402 358.191 478.402 342.082 462.293L206.25 326.461L41.814 490.897C98.2657 591.793 206.168 660 330 660C512.254 660 660 512.254 660 330C660 291.841 653.523 255.196 641.609 221.102Z" fill="#8794BA"/>
<path d="M330 0.5C442.789 0.5 542.343 57.1695 601.74 143.591L371.25 374.082L235.772 238.603C219.467 222.299 193.033 222.299 176.728 238.603L9.31239 406.019C3.54965 381.616 0.5 356.164 0.5 330C0.5 148.022 148.022 0.5 330 0.5ZM400.772 462.647L641.399 222.019C653.128 255.847 659.5 292.179 659.5 330C659.5 511.978 511.978 659.5 330 659.5C206.491 659.5 98.8526 591.546 42.4352 490.983L206.25 327.168L341.728 462.647C358.033 478.951 384.467 478.951 400.772 462.647Z" stroke="black"/>
</g>
<defs>
<filter id="filter0_d_1_486" x="-4" y="0" width="668" height="668" filterUnits="userSpaceOnUse" color-interpolation-filters="sRGB">
<feFlood flood-opacity="0" result="BackgroundImageFix"/>
<feColorMatrix in="SourceAlpha" type="matrix" values="0 0 0 0 0 0 0 0 0 0 0 0 0 0 0 0 0 0 127 0" result="hardAlpha"/>
<feOffset dy="4"/>
<feGaussianBlur stdDeviation="2"/>
<feComposite in2="hardAlpha" operator="out"/>
<feColorMatrix type="matrix" values="0 0 0 0 0 0 0 0 0 0 0 0 0 0 0 0 0 0 0.25 0"/>
<feBlend mode="normal" in2="BackgroundImageFix" result="effect1_dropShadow_1_486"/>
<feBlend mode="normal" in="SourceGraphic" in2="effect1_dropShadow_1_486" result="shape"/>
</filter>
</defs>
</svg>
